<mxfile host="app.diagrams.net" modified="2023-11-09T04:36:44.415Z" agent="Mozilla/5.0 (Windows NT 10.0; Win64; x64) AppleWebKit/537.36 (KHTML, like Gecko) Chrome/119.0.0.0 Safari/537.36" etag="EQdM_RWf3P5gzFjcsrhr" version="22.1.0" type="github" pages="2">
  <diagram name="Página-1" id="WfksLThMLNYTxU1Jsna6">
    <mxGraphModel dx="2074" dy="772" grid="1" gridSize="10" guides="1" tooltips="1" connect="1" arrows="1" fold="1" page="1" pageScale="1" pageWidth="827" pageHeight="1169" math="0" shadow="0">
      <root>
        <mxCell id="0" />
        <mxCell id="1" parent="0" />
        <mxCell id="q87skWljZuR8VZB0_UVq-22" style="edgeStyle=orthogonalEdgeStyle;rounded=0;orthogonalLoop=1;jettySize=auto;html=1;entryX=0;entryY=0;entryDx=0;entryDy=0;" edge="1" parent="1" source="q87skWljZuR8VZB0_UVq-1" target="q87skWljZuR8VZB0_UVq-2">
          <mxGeometry relative="1" as="geometry" />
        </mxCell>
        <mxCell id="q87skWljZuR8VZB0_UVq-31" value="" style="edgeStyle=orthogonalEdgeStyle;rounded=0;orthogonalLoop=1;jettySize=auto;html=1;" edge="1" parent="1" source="q87skWljZuR8VZB0_UVq-1" target="q87skWljZuR8VZB0_UVq-30">
          <mxGeometry relative="1" as="geometry" />
        </mxCell>
        <mxCell id="q87skWljZuR8VZB0_UVq-33" style="edgeStyle=orthogonalEdgeStyle;rounded=0;orthogonalLoop=1;jettySize=auto;html=1;entryX=0.5;entryY=0;entryDx=0;entryDy=0;" edge="1" parent="1" source="q87skWljZuR8VZB0_UVq-1" target="q87skWljZuR8VZB0_UVq-32">
          <mxGeometry relative="1" as="geometry" />
        </mxCell>
        <mxCell id="q87skWljZuR8VZB0_UVq-35" style="edgeStyle=orthogonalEdgeStyle;rounded=0;orthogonalLoop=1;jettySize=auto;html=1;exitX=1;exitY=1;exitDx=0;exitDy=0;entryX=0.5;entryY=0;entryDx=0;entryDy=0;" edge="1" parent="1" source="q87skWljZuR8VZB0_UVq-1" target="q87skWljZuR8VZB0_UVq-34">
          <mxGeometry relative="1" as="geometry" />
        </mxCell>
        <mxCell id="q87skWljZuR8VZB0_UVq-37" style="edgeStyle=orthogonalEdgeStyle;rounded=0;orthogonalLoop=1;jettySize=auto;html=1;entryX=0;entryY=0.5;entryDx=0;entryDy=0;" edge="1" parent="1" source="q87skWljZuR8VZB0_UVq-1" target="q87skWljZuR8VZB0_UVq-36">
          <mxGeometry relative="1" as="geometry" />
        </mxCell>
        <mxCell id="q87skWljZuR8VZB0_UVq-1" value="ACCOUNT (Personagens)" style="ellipse;whiteSpace=wrap;html=1;" vertex="1" parent="1">
          <mxGeometry x="40" y="80" width="120" height="80" as="geometry" />
        </mxCell>
        <mxCell id="q87skWljZuR8VZB0_UVq-8" style="edgeStyle=orthogonalEdgeStyle;rounded=0;orthogonalLoop=1;jettySize=auto;html=1;" edge="1" parent="1" source="q87skWljZuR8VZB0_UVq-2" target="q87skWljZuR8VZB0_UVq-5">
          <mxGeometry relative="1" as="geometry" />
        </mxCell>
        <mxCell id="q87skWljZuR8VZB0_UVq-9" style="edgeStyle=orthogonalEdgeStyle;rounded=0;orthogonalLoop=1;jettySize=auto;html=1;entryX=0;entryY=0.5;entryDx=0;entryDy=0;" edge="1" parent="1" source="q87skWljZuR8VZB0_UVq-2" target="q87skWljZuR8VZB0_UVq-4">
          <mxGeometry relative="1" as="geometry" />
        </mxCell>
        <mxCell id="q87skWljZuR8VZB0_UVq-11" style="edgeStyle=orthogonalEdgeStyle;rounded=0;orthogonalLoop=1;jettySize=auto;html=1;entryX=0.5;entryY=0;entryDx=0;entryDy=0;" edge="1" parent="1" source="q87skWljZuR8VZB0_UVq-2" target="q87skWljZuR8VZB0_UVq-3">
          <mxGeometry relative="1" as="geometry" />
        </mxCell>
        <mxCell id="q87skWljZuR8VZB0_UVq-12" style="edgeStyle=orthogonalEdgeStyle;rounded=0;orthogonalLoop=1;jettySize=auto;html=1;entryX=0;entryY=0.5;entryDx=0;entryDy=0;" edge="1" parent="1" source="q87skWljZuR8VZB0_UVq-2" target="q87skWljZuR8VZB0_UVq-6">
          <mxGeometry relative="1" as="geometry" />
        </mxCell>
        <mxCell id="q87skWljZuR8VZB0_UVq-23" style="edgeStyle=orthogonalEdgeStyle;rounded=0;orthogonalLoop=1;jettySize=auto;html=1;entryX=0;entryY=0;entryDx=0;entryDy=0;" edge="1" parent="1" source="q87skWljZuR8VZB0_UVq-2" target="q87skWljZuR8VZB0_UVq-17">
          <mxGeometry relative="1" as="geometry">
            <Array as="points">
              <mxPoint x="300" y="302" />
            </Array>
          </mxGeometry>
        </mxCell>
        <mxCell id="q87skWljZuR8VZB0_UVq-2" value="ASSETS" style="ellipse;whiteSpace=wrap;html=1;" vertex="1" parent="1">
          <mxGeometry x="280" y="80" width="120" height="80" as="geometry" />
        </mxCell>
        <mxCell id="q87skWljZuR8VZB0_UVq-3" value="Atributos" style="ellipse;whiteSpace=wrap;html=1;aspect=fixed;" vertex="1" parent="1">
          <mxGeometry x="210" y="140" width="60" height="60" as="geometry" />
        </mxCell>
        <mxCell id="q87skWljZuR8VZB0_UVq-4" value="Classe" style="ellipse;whiteSpace=wrap;html=1;aspect=fixed;" vertex="1" parent="1">
          <mxGeometry x="350" y="170" width="60" height="60" as="geometry" />
        </mxCell>
        <mxCell id="q87skWljZuR8VZB0_UVq-5" value="Raça" style="ellipse;whiteSpace=wrap;html=1;aspect=fixed;" vertex="1" parent="1">
          <mxGeometry x="430" y="110" width="70" height="70" as="geometry" />
        </mxCell>
        <mxCell id="q87skWljZuR8VZB0_UVq-6" value="Missões (Livros)" style="ellipse;whiteSpace=wrap;html=1;aspect=fixed;" vertex="1" parent="1">
          <mxGeometry x="360" y="20" width="60" height="60" as="geometry" />
        </mxCell>
        <mxCell id="q87skWljZuR8VZB0_UVq-13" style="edgeStyle=orthogonalEdgeStyle;rounded=0;orthogonalLoop=1;jettySize=auto;html=1;" edge="1" parent="1" source="q87skWljZuR8VZB0_UVq-17" target="q87skWljZuR8VZB0_UVq-20">
          <mxGeometry relative="1" as="geometry" />
        </mxCell>
        <mxCell id="q87skWljZuR8VZB0_UVq-14" style="edgeStyle=orthogonalEdgeStyle;rounded=0;orthogonalLoop=1;jettySize=auto;html=1;entryX=0;entryY=0.5;entryDx=0;entryDy=0;" edge="1" parent="1" source="q87skWljZuR8VZB0_UVq-17" target="q87skWljZuR8VZB0_UVq-19">
          <mxGeometry relative="1" as="geometry" />
        </mxCell>
        <mxCell id="q87skWljZuR8VZB0_UVq-15" style="edgeStyle=orthogonalEdgeStyle;rounded=0;orthogonalLoop=1;jettySize=auto;html=1;entryX=0.5;entryY=0;entryDx=0;entryDy=0;" edge="1" parent="1" source="q87skWljZuR8VZB0_UVq-17" target="q87skWljZuR8VZB0_UVq-18">
          <mxGeometry relative="1" as="geometry" />
        </mxCell>
        <mxCell id="q87skWljZuR8VZB0_UVq-16" style="edgeStyle=orthogonalEdgeStyle;rounded=0;orthogonalLoop=1;jettySize=auto;html=1;entryX=0;entryY=0.5;entryDx=0;entryDy=0;" edge="1" parent="1" source="q87skWljZuR8VZB0_UVq-17" target="q87skWljZuR8VZB0_UVq-21">
          <mxGeometry relative="1" as="geometry" />
        </mxCell>
        <mxCell id="q87skWljZuR8VZB0_UVq-17" value="PRODUCT2" style="ellipse;whiteSpace=wrap;html=1;" vertex="1" parent="1">
          <mxGeometry x="440" y="290" width="120" height="80" as="geometry" />
        </mxCell>
        <mxCell id="q87skWljZuR8VZB0_UVq-18" value="Atributos" style="ellipse;whiteSpace=wrap;html=1;aspect=fixed;" vertex="1" parent="1">
          <mxGeometry x="370" y="350" width="60" height="60" as="geometry" />
        </mxCell>
        <mxCell id="q87skWljZuR8VZB0_UVq-19" value="Classe" style="ellipse;whiteSpace=wrap;html=1;aspect=fixed;" vertex="1" parent="1">
          <mxGeometry x="510" y="380" width="60" height="60" as="geometry" />
        </mxCell>
        <mxCell id="q87skWljZuR8VZB0_UVq-20" value="Raça" style="ellipse;whiteSpace=wrap;html=1;aspect=fixed;" vertex="1" parent="1">
          <mxGeometry x="590" y="320" width="70" height="70" as="geometry" />
        </mxCell>
        <mxCell id="q87skWljZuR8VZB0_UVq-21" value="Missões (Livros)" style="ellipse;whiteSpace=wrap;html=1;aspect=fixed;" vertex="1" parent="1">
          <mxGeometry x="520" y="230" width="60" height="60" as="geometry" />
        </mxCell>
        <mxCell id="q87skWljZuR8VZB0_UVq-27" style="edgeStyle=orthogonalEdgeStyle;rounded=0;orthogonalLoop=1;jettySize=auto;html=1;entryX=0;entryY=0.5;entryDx=0;entryDy=0;" edge="1" parent="1" source="q87skWljZuR8VZB0_UVq-24" target="q87skWljZuR8VZB0_UVq-25">
          <mxGeometry relative="1" as="geometry" />
        </mxCell>
        <mxCell id="q87skWljZuR8VZB0_UVq-24" value="BOOKLEAD__c" style="ellipse;whiteSpace=wrap;html=1;" vertex="1" parent="1">
          <mxGeometry x="160" y="570" width="120" height="80" as="geometry" />
        </mxCell>
        <mxCell id="q87skWljZuR8VZB0_UVq-26" style="edgeStyle=orthogonalEdgeStyle;rounded=0;orthogonalLoop=1;jettySize=auto;html=1;entryX=0;entryY=1;entryDx=0;entryDy=0;" edge="1" parent="1" source="q87skWljZuR8VZB0_UVq-25" target="q87skWljZuR8VZB0_UVq-17">
          <mxGeometry relative="1" as="geometry" />
        </mxCell>
        <mxCell id="q87skWljZuR8VZB0_UVq-25" value="CONVERTE EM" style="shape=process;whiteSpace=wrap;html=1;backgroundOutline=1;" vertex="1" parent="1">
          <mxGeometry x="270" y="490" width="120" height="60" as="geometry" />
        </mxCell>
        <mxCell id="q87skWljZuR8VZB0_UVq-30" value="Coins" style="rhombus;whiteSpace=wrap;html=1;" vertex="1" parent="1">
          <mxGeometry y="190" width="60" height="60" as="geometry" />
        </mxCell>
        <mxCell id="q87skWljZuR8VZB0_UVq-32" value="Default Classe" style="rhombus;whiteSpace=wrap;html=1;" vertex="1" parent="1">
          <mxGeometry x="60" y="225" width="80" height="70" as="geometry" />
        </mxCell>
        <mxCell id="q87skWljZuR8VZB0_UVq-34" value="Default Raça" style="rhombus;whiteSpace=wrap;html=1;" vertex="1" parent="1">
          <mxGeometry x="130" y="200" width="80" height="70" as="geometry" />
        </mxCell>
        <mxCell id="q87skWljZuR8VZB0_UVq-36" value="Cor" style="rhombus;whiteSpace=wrap;html=1;" vertex="1" parent="1">
          <mxGeometry x="150" y="15" width="80" height="70" as="geometry" />
        </mxCell>
      </root>
    </mxGraphModel>
  </diagram>
  <diagram id="R4yXHPcUCWAu_kISh7KC" name="Página-2">
    <mxGraphModel dx="1430" dy="532" grid="1" gridSize="10" guides="1" tooltips="1" connect="1" arrows="1" fold="1" page="1" pageScale="1" pageWidth="827" pageHeight="1169" math="0" shadow="0">
      <root>
        <mxCell id="0" />
        <mxCell id="1" parent="0" />
        <mxCell id="pDVOKTtRrjRDVw-yt7Mz-4" style="edgeStyle=orthogonalEdgeStyle;rounded=0;orthogonalLoop=1;jettySize=auto;html=1;" edge="1" parent="1" source="pDVOKTtRrjRDVw-yt7Mz-1" target="pDVOKTtRrjRDVw-yt7Mz-3">
          <mxGeometry relative="1" as="geometry" />
        </mxCell>
        <mxCell id="pDVOKTtRrjRDVw-yt7Mz-1" value="Cria personagem" style="ellipse;whiteSpace=wrap;html=1;" vertex="1" parent="1">
          <mxGeometry x="90" y="50" width="120" height="80" as="geometry" />
        </mxCell>
        <mxCell id="pDVOKTtRrjRDVw-yt7Mz-2" value="Troca classe" style="ellipse;whiteSpace=wrap;html=1;" vertex="1" parent="1">
          <mxGeometry x="90" y="380" width="120" height="80" as="geometry" />
        </mxCell>
        <mxCell id="pDVOKTtRrjRDVw-yt7Mz-7" style="edgeStyle=orthogonalEdgeStyle;rounded=0;orthogonalLoop=1;jettySize=auto;html=1;" edge="1" parent="1" source="pDVOKTtRrjRDVw-yt7Mz-3" target="pDVOKTtRrjRDVw-yt7Mz-6">
          <mxGeometry relative="1" as="geometry" />
        </mxCell>
        <mxCell id="pDVOKTtRrjRDVw-yt7Mz-3" value="Evolui atributos" style="shape=process;whiteSpace=wrap;html=1;backgroundOutline=1;" vertex="1" parent="1">
          <mxGeometry x="90" y="170" width="120" height="60" as="geometry" />
        </mxCell>
        <mxCell id="pDVOKTtRrjRDVw-yt7Mz-8" style="edgeStyle=orthogonalEdgeStyle;rounded=0;orthogonalLoop=1;jettySize=auto;html=1;entryX=0.5;entryY=0;entryDx=0;entryDy=0;" edge="1" parent="1" source="pDVOKTtRrjRDVw-yt7Mz-6" target="pDVOKTtRrjRDVw-yt7Mz-2">
          <mxGeometry relative="1" as="geometry" />
        </mxCell>
        <mxCell id="pDVOKTtRrjRDVw-yt7Mz-6" value="Chama mestre" style="ellipse;whiteSpace=wrap;html=1;" vertex="1" parent="1">
          <mxGeometry x="90" y="270" width="120" height="80" as="geometry" />
        </mxCell>
        <mxCell id="pDVOKTtRrjRDVw-yt7Mz-11" style="edgeStyle=orthogonalEdgeStyle;rounded=0;orthogonalLoop=1;jettySize=auto;html=1;entryX=1;entryY=0.5;entryDx=0;entryDy=0;" edge="1" parent="1" source="pDVOKTtRrjRDVw-yt7Mz-9" target="pDVOKTtRrjRDVw-yt7Mz-2">
          <mxGeometry relative="1" as="geometry" />
        </mxCell>
        <mxCell id="pDVOKTtRrjRDVw-yt7Mz-9" value="Usa moedas" style="ellipse;whiteSpace=wrap;html=1;" vertex="1" parent="1">
          <mxGeometry x="260" y="330" width="120" height="80" as="geometry" />
        </mxCell>
        <mxCell id="pDVOKTtRrjRDVw-yt7Mz-12" value="CURANDEIRO&lt;br&gt;atributo: cura (valor?)" style="text;html=1;strokeColor=none;fillColor=none;align=center;verticalAlign=middle;whiteSpace=wrap;rounded=0;" vertex="1" parent="1">
          <mxGeometry x="400" y="200" width="300" height="120" as="geometry" />
        </mxCell>
      </root>
    </mxGraphModel>
  </diagram>
</mxfile>
